# AST/ASF file generated using VICON BodyLanguage
# -----------------------------------------------
:version 1.10
:name VICON
:units
  mass 1.0
  length 0.45
  angle deg
:documentation
   .ast/.asf automatically generated from VICON data using
   VICON BodyBuilder and BodyLanguage model FoxedUp or BRILLIANT.MOD
:root
   order TX TY TZ RX RY RZ
   axis XYZ
   position 0 0 0  
   orientation 0 0 0 
:bonedata
  begin
     id 1 
     name lhipjoint
     direction 0.660183 -0.676772 0.325788 
     length 2.75133 
     axis 0 0 0  XYZ
  end
  begin
     id 2 
     name lfemur
     direction 0.34202 -0.939693 0  
     length 7.70317  
     axis 0 0 20  XYZ
    dof rx ry rz
    limits (-160.0 20.0)
           (-70.0 70.0)
           (-60.0 70.0)
  end
  begin
     id 3 
     name ltibia
     direction 0.342105 -0.939662 0   
     length 7.18701   
     axis 0 0 20   XYZ
    dof rx
    limits (-10.0 170.0)
  end
  begin
     id 4 
     name lfoot
     direction 0.14163 -0.389126 0.910232   
     length 2.41719   
     axis -90 7.62852e-016 20   XYZ
    dof rx rz
    limits (-45.0 90.0)
           (-70.0 20.0)
  end
  begin
     id 5 
     name ltoes
     direction 1.53533e-011 -4.21926e-011 1   
     length 1.18611   
     axis -90 7.62852e-016 20   XYZ
    dof rx
    limits (-90.0 20.0)
  end
  begin
     id 6 
     name rhipjoint
     direction -0.6658 -0.67229 0.323631   
     length 2.76968  
     axis 0 0 0  XYZ 
  end
  begin
     id 7 
     name rfemur
     direction -0.34202 -0.939693 0   
     length 7.92547   
     axis 0 0 -20   XYZ
    dof rx ry rz
    limits (-160.0 20.0)
           (-70.0 70.0)
           (-70.0 60.0)
  end
  begin
     id 8 
     name rtibia
     direction -0.342022 -0.939692 0   
     length 7.22641   
     axis 0 0 -20   XYZ
    dof rx
    limits (-10.0 170.0)
 end
 begin
     id 9 
     name rfoot
     direction -0.105675 -0.29034 0.951071   
     length 2.48149  
     axis -90 -7.62852e-016 -20   XYZ
    dof rx rz
    limits (-45.0 90.0)
           (-20.0 70.0)
  end
  begin
     id 10 
     name rtoes
     direction -1.5349e-011 -4.21859e-011 1   
     length 1.23343   
     axis -90 -7.62852e-016 -20   XYZ
    dof rx
    limits (-90.0 20.0)
  end
  begin
     id 11 
     name lowerback
     direction 0.0104173 0.993624 -0.112266   
     length 2.00527   
     axis 0 0 0   XYZ
    dof rx ry rz
    limits (-20.0 45.0)
           (-30.0 30.0)
           (-30.0 30.0)
  end
  begin
     id 12 
     name upperback
     direction 0.00733149 0.999856 -0.0152913   
     length 2.01385   
     axis 0 0 0   XYZ
    dof rx ry rz
    limits (-20.0 45.0)
           (-30.0 30.0)
           (-30.0 30.0)
  end
  begin
     id 13 
     name thorax
     direction 0.0026304 0.999318 0.036841   
     length 2.03734   
     axis 0 0 0   XYZ
    dof rx ry rz
    limits (-20.0 45.0)
           (-30.0 30.0)
           (-30.0 30.0)
  end
  begin
     id 14 
     name lowerneck
     direction 0.0293154 0.998757 0.0403082   
     length 1.65303   
     axis 0 0 0   XYZ
    dof rx ry rz
    limits (-20.0 45.0)
           (-30.0 30.0)
           (-30.0 30.0)
  end
  begin
     id 15 
     name upperneck
     direction -0.0376619 0.998184 -0.0470083   
     length 1.60926   
     axis 0 0 0   XYZ
    dof rx ry rz
    limits (-20.0 45.0)
           (-30.0 30.0)
           (-30.0 30.0)
  end
  begin
     id 16
     name head
     direction -0.0170133 0.999635 -0.0209778  
     length 1.73625  
     axis 0 0 0   XYZ
    dof rx ry rz
    limits (-20.0 45.0)
           (-30.0 30.0)
           (-30.0 30.0)
  end
  begin
     id 17 
     name lclavicle
     direction 0.919857 0.39181 -0.0186333  
     length 3.75313  
     axis 0 0 0   XYZ
    dof ry rz
    limits (-20.0 10.0)
           (0.0 20.0)
  end
  begin
     id 18 
     name lhumerus
     direction 1 -4.48988e-011 1.44029e-027   
     length 5.49313   
     axis 180 -30 -90   XYZ
    dof rx ry rz
    limits (-60.0 90.0)
           (-90.0 90.0)
           (-90.0 90.0)
  end
  begin
     id 19
     name lradius
     direction 1 -4.48924e-011 7.46281e-027   
     length 3.29037   
     axis 180 -30 -90   XYZ
    dof rx
    limits (-10.0 170.0)
  end
  begin
     id 20
     name lwrist
     direction 1 -4.48955e-011 2.19879e-026   
     length 1.64519   
     axis -1.34358e-014 90 90   XYZ
    dof ry
    limits (-180.0 0.0)
 end
  begin
     id 21 
     name lhand
     direction 1 -4.48978e-011 4.39747e-026   
     length 0.729656   
     axis -2.80598e-014 90 90   XYZ
    dof rx rz
    limits (-90.0 90.0)
           (-45.0 45.0)
  end
  begin
     id 22 
     name lfingers
     direction 1 -4.49071e-011 8.79411e-026   
     length 0.588268   
     axis -5.61193e-014 90 90   XYZ
    dof rx
    limits (0.0 90.0)
  end
  begin
     id 23
     name lthumb
     direction 0.707107 -6.34817e-011 0.707107   
     length 0.844638   
     axis -90 45 -9.86923e-015   XYZ
    dof rx rz
    limits (-45.0 45.0)
           (-45.0 45.0)
  end
  begin
     id 24 
     name rclavicle
     direction -0.919898 0.388279 0.0550233   
     length 3.7171  
     axis 0 0 0   XYZ 
    dof ry rz
    limits (-10.0 20.0)
           (-20.0 0.0)
  end
  begin
     id 25 
     name rhumerus
     direction -1 -4.48968e-011 9.98372e-028  
     length 5.23684   
     axis 180 30 90   XYZ
    dof rx ry rz
    limits (-90.0 60.0)
           (-90.0 90.0)
           (-90.0 90.0)
  end
  begin
     id 26 
     name rradius
     direction -1 -4.48956e-011 1.01023e-026   
     length 3.38251   
     axis 180 30 90   XYZ
    dof rx
    limits (-10.0 170.0)
  end
  begin
     id 27 
     name rwrist
     direction -1 -4.4892e-011 2.19886e-026   
     length 1.69126   
     axis -1.34358e-014 -90 -90   XYZ
    dof ry
    limits (-180.0 0.0)
  end
  begin
     id 28
     name rhand
     direction -1 -4.49024e-011 4.39727e-026   
     length 0.691454   
     axis -2.80598e-014 -90 -90   XYZ
    dof rx rz
    limits (-90.0 90.0)
           (-45.0 45.0)
  end
  begin
     id 29
     name rfingers
     direction -1 -4.49097e-011 8.79388e-026   
     length 0.557468   
     axis -5.61193e-014 -90 -90   XYZ
    dof rx
    limits (0.0 90.0)
  end
  begin
     id 30
     name rthumb
     direction -0.707107 -6.34938e-011 0.707107   
     length 0.800416   
     axis -90 -45 9.86923e-015   XYZ
    dof rx rz
    limits (-45.0 45.0)
           (-45.0 45.0)
  end
:hierarchy
  begin
    root lhipjoint rhipjoint lowerback
    lhipjoint lfemur
    lfemur ltibia
    ltibia lfoot
    lfoot ltoes
    rhipjoint rfemur
    rfemur rtibia
    rtibia rfoot
    rfoot rtoes
    lowerback upperback
    upperback thorax
    thorax lowerneck lclavicle rclavicle
    lowerneck upperneck
    upperneck head
    lclavicle lhumerus
    lhumerus lradius
    lradius lwrist
    lwrist lhand lthumb
    lhand lfingers
    rclavicle rhumerus
    rhumerus rradius
    rradius rwrist
    rwrist rhand rthumb
    rhand rfingers
  end

#!OML:ASF H:\BabyWalks\Project 1\Capture day 1\Session 1\baby.ASF
:FULLY-SPECIFIED
:DEGREES
43
root -34.3561 17.4883 -2.66947 -34.505 79.5361 -36.8962
lowerback 13.9166 -1.01995 3.10144
upperback 6.86214 -0.585781 2.32215
thorax -0.586199 -0.119197 0.754308
lowerneck -1.70907 3.40264 0.564589
upperneck -7.44397 4.48571 -3.10504
head -1.94836 2.33844 -1.12164
rclavicle -1.06847e-014 1.80397e-014
rhumerus -45.0672 20.8108 -88.0455
rradius 46.5742
rwrist -1.43883
rhand -7.01615 -18.0216
rfingers 7.12502
rthumb 18.8553 -47.1277
lclavicle -1.06847e-014 1.80397e-014
lhumerus -46.1459 -11.0327 88.8022
lradius 55.1274
lwrist 5.85756
lhand 0.233325 12.699
lfingers 7.12502
lthumb 25.8138 40.9674
rfemur 6.70424 9.6891 28.2581
rtibia 11.1363
rfoot -21.1684 -8.77929
rtoes 1.66728
lfemur -22.5576 -0.538906 -10.5542
ltibia 38.7115
lfoot -22.1481 -11.6486
ltoes -3.67234
44
root -34.3554 17.4889 -2.67076 -34.4012 79.5328 -36.825
lowerback 13.9226 -1.01831 3.07283
upperback 6.85076 -0.587729 2.30814
thorax -0.601369 -0.121239 0.756127
lowerneck -1.68364 3.4182 0.598346
upperneck -7.47629 4.50671 -3.09776
head -1.96236 2.3484 -1.12654
rclavicle 1.22253e-014 -3.43897e-014
rhumerus -45.2963 20.8808 -88.1321
rradius 46.7005
rwrist -1.60457
rhand -7.05559 -18.037
rfingers 7.12502
rthumb 18.8174 -47.1468
lclavicle 1.22253e-014 -3.43897e-014
lhumerus -46.4521 -11.2025 88.9797
lradius 55.2215
lwrist 5.95043
lhand 0.273605 12.6919
lfingers 7.12502
lthumb 25.8524 40.9548
rfemur 6.6471 9.70865 28.2392
rtibia 11.179
rfoot -21.1293 -8.7935
rtoes 1.48936
lfemur -22.5872 -0.55514 -10.5669
ltibia 38.7074
lfoot -22.1697 -11.6019
ltoes -4.0335
45
root -34.3546 17.4895 -2.67219 -34.3371 79.5223 -36.7934
lowerback 13.9301 -1.01637 3.05346
upperback 6.84024 -0.587964 2.29571
thorax -0.616455 -0.12218 0.754189
lowerneck -1.65726 3.43304 0.629521
upperneck -7.51332 4.52717 -3.08367
head -1.97828 2.35807 -1.12899
rclavicle -9.88954e-015 -1.58034e-014
rhumerus -45.531 20.9494 -88.2212
rradius 46.828
rwrist -1.7792
rhand -7.08907 -18.0428
rfingers 7.12502
rthumb 18.7852 -47.1558
lclavicle -9.88954e-015 -1.58034e-014
lhumerus -46.754 -11.3574 89.1523
lradius 55.3105
lwrist 6.03695
lhand 0.318183 12.6991
lfingers 7.12502
lthumb 25.8951 40.9557
rfemur 6.59152 9.72951 28.231
rtibia 11.219
rfoot -21.0849 -8.8064
rtoes 1.31284
lfemur -22.6158 -0.567073 -10.5688
ltibia 38.7043
lfoot -22.191 -11.556
ltoes -4.38898
46
root -34.3533 17.49 -2.67377 -34.2735 79.5106 -36.7594
lowerback 13.9385 -1.01346 3.03416
upperback 6.83217 -0.586817 2.28284
thorax -0.629418 -0.122324 0.751544
lowerneck -1.62874 3.44541 0.658534
upperneck -7.55723 4.54453 -3.0663
head -1.997 2.36627 -1.13022
rclavicle -1.56543e-015 -3.8763e-015
rhumerus -45.7687 21.0167 -88.311
rradius 46.9515
rwrist -1.95749
rhand -7.11369 -18.0436
rfingers 7.12502
rthumb 18.7615 -47.1588
lclavicle -1.56543e-015 -3.8763e-015
lhumerus -47.048 -11.4966 89.3202
lradius 55.3926
lwrist 6.12233
lhand 0.367146 12.7261
lfingers 7.12502
lthumb 25.942 40.9758
rfemur 6.54706 9.74951 28.2227
rtibia 11.246
rfoot -21.0379 -8.81651
rtoes 1.13527
lfemur -22.6418 -0.575277 -10.5717
ltibia 38.7049
lfoot -22.215 -11.5115
ltoes -4.76104
47
root -34.3517 17.4903 -2.67546 -34.2277 79.4948 -36.7395
lowerback 13.9487 -1.00959 3.01875
upperback 6.82543 -0.583787 2.26988
thorax -0.641935 -0.121378 0.746376
lowerneck -1.59251 3.45515 0.684676
upperneck -7.60782 4.55866 -3.04305
head -2.01951 2.3729 -1.12942
rclavicle 2.98177e-016 -2.15681e-014
rhumerus -46.0117 21.0806 -88.4034
rradius 47.0717
rwrist -2.13757
rhand -7.12821 -18.0408
rfingers 7.12502
rthumb 18.7475 -47.1573
lclavicle 2.98177e-016 -2.15681e-014
lhumerus -47.3358 -11.6221 89.4813
lradius 55.4647
lwrist 6.20295
lhand 0.419865 12.7766
lfingers 7.12502
lthumb 25.9925 41.019
rfemur 6.51642 9.7692 28.2194
rtibia 11.2565
rfoot -20.9873 -8.82357
rtoes 0.974168
lfemur -22.6643 -0.57775 -10.5702
ltibia 38.7106
lfoot -22.2419 -11.4701
ltoes -5.12686
48
root -34.3497 17.4905 -2.67733 -34.1829 79.4739 -36.7186
lowerback 13.9595 -1.00405 3.00764
upperback 6.81984 -0.577996 2.25632
thorax -0.653633 -0.118905 0.737771
lowerneck -1.56344 3.46324 0.704261
upperneck -7.65278 4.57111 -3.01268
head -2.03927 2.37859 -1.12497
rclavicle -1.18277e-014 -2.61402e-014
rhumerus -46.256 21.1402 -88.4965
rradius 47.184
rwrist -2.31462
rhand -7.13162 -18.044
rfingers 7.12502
rthumb 18.7442 -47.1609
lclavicle -1.18277e-014 -2.61402e-014
lhumerus -47.6149 -11.7332 89.6349
lradius 55.5228
lwrist 6.27264
lhand 0.471025 12.8288
lfingers 7.12502
lthumb 26.0415 41.064
rfemur 6.4977 9.79126 28.2183
rtibia 11.2509
rfoot -20.9304 -8.82622
rtoes 0.824993
lfemur -22.6846 -0.575952 -10.5667
ltibia 38.721
lfoot -22.2691 -11.4261
ltoes -5.47859
49
root -34.3474 17.4907 -2.67939 -34.1603 79.4543 -36.7215
lowerback 13.9657 -0.999332 3.00223
upperback 6.8145 -0.572863 2.24214
thorax -0.662646 -0.116606 0.72537
lowerneck -1.52554 3.46801 0.723955
upperneck -7.70436 4.57898 -2.98389
head -2.06284 2.3821 -1.12136
rclavicle -1.61513e-014 2.64384e-014
rhumerus -46.5009 21.196 -88.5918
rradius 47.286
rwrist -2.48633
rhand -7.12891 -18.0536
rfingers 7.12502
rthumb 18.7468 -47.1702
lclavicle -1.61513e-014 2.64384e-014
lhumerus -47.8843 -11.8322 89.7802
lradius 55.5626
lwrist 6.33552
lhand 0.519298 12.8782
lfingers 7.12502
lthumb 26.0877 41.1066
rfemur 6.48582 9.80853 28.2188
rtibia 11.2317
rfoot -20.872 -8.82761
rtoes 0.682369
lfemur -22.7082 -0.574668 -10.5614
ltibia 38.736
lfoot -22.2974 -11.3865
ltoes -5.79538
50
root -34.3448 17.4907 -2.68156 -34.1532 79.4352 -36.7402
lowerback 13.9674 -0.993948 2.99918
upperback 6.80907 -0.566836 2.22778
thorax -0.669322 -0.113804 0.711257
lowerneck -1.48397 3.47119 0.736362
upperneck -7.75092 4.5852 -2.94621
head -2.08581 2.38468 -1.11368
rclavicle 7.85199e-015 5.1684e-015
rhumerus -46.7484 21.2437 -88.6867
rradius 47.3801
rwrist -2.64705
rhand -7.11193 -18.0784
rfingers 7.12502
rthumb 18.7632 -47.1935
lclavicle 7.85199e-015 5.1684e-015
lhumerus -48.145 -11.922 89.9178
lradius 55.5839
lwrist 6.3909
lhand 0.559625 12.9223
lfingers 7.12502
lthumb 26.1263 41.145
rfemur 6.47973 9.82444 28.2212
rtibia 11.2025
rfoot -20.8096 -8.83005
rtoes 0.544479
lfemur -22.7332 -0.573782 -10.5544
ltibia 38.7539
lfoot -22.3246 -11.3524
ltoes -6.06121
51
root -34.3421 17.4908 -2.68381 -34.1658 79.417 -36.7786
lowerback 13.9677 -0.98948 3.00003
upperback 6.8048 -0.561587 2.21268
thorax -0.674133 -0.111242 0.694286
lowerneck -1.43973 3.47198 0.754654
upperneck -7.7988 4.58778 -2.91696
head -2.10949 2.38547 -1.10972
rclavicle -1.44119e-015 1.2921e-015
rhumerus -46.9893 21.2837 -88.781
rradius 47.4587
rwrist -2.79008
rhand -7.08736 -18.097
rfingers 7.12502
rthumb 18.7868 -47.2098
lclavicle -1.44119e-015 1.2921e-015
lhumerus -48.3927 -12.0016 90.0453
lradius 55.5877
lwrist 6.43865
lhand 0.598893 12.963
lfingers 7.12502
lthumb 26.1639 41.1801
rfemur 6.47488 9.83763 28.2261
rtibia 11.1712
rfoot -20.7415 -8.83439
rtoes 0.384
lfemur -22.7591 -0.573114 -10.5454
ltibia 38.7729
lfoot -22.349 -11.3236
ltoes -6.26441
